<?xml version="1.0" encoding="UTF-8" standalone="no"?>
<!-- Generator: Adobe Illustrator 16.0.0, SVG Export Plug-In . SVG Version: 6.00 Build 0)  -->

<svg
   xmlns:dc="http://purl.org/dc/elements/1.1/"
   xmlns:cc="http://creativecommons.org/ns#"
   xmlns:rdf="http://www.w3.org/1999/02/22-rdf-syntax-ns#"
   xmlns:svg="http://www.w3.org/2000/svg"
   xmlns="http://www.w3.org/2000/svg"
   xmlns:xlink="http://www.w3.org/1999/xlink"
   xmlns:sodipodi="http://sodipodi.sourceforge.net/DTD/sodipodi-0.dtd"
   xmlns:inkscape="http://www.inkscape.org/namespaces/inkscape"
   version="1.1"
   id="Layer_1"
   x="0px"
   y="0px"
   width="1920px"
   height="1080px"
   viewBox="0 0 1920 1080"
   enable-background="new 0 0 1920 1080"
   xml:space="preserve"
   inkscape:version="0.91 r13725"
   sodipodi:docname="title.svg"><metadata
     id="metadata4263"><rdf:RDF><cc:Work
         rdf:about=""><dc:format>image/svg+xml</dc:format><dc:type
           rdf:resource="http://purl.org/dc/dcmitype/StillImage" /></cc:Work></rdf:RDF></metadata><defs
     id="defs4261" /><sodipodi:namedview
     pagecolor="#ffffff"
     bordercolor="#666666"
     borderopacity="1"
     objecttolerance="10"
     gridtolerance="10"
     guidetolerance="10"
     inkscape:pageopacity="0"
     inkscape:pageshadow="2"
     inkscape:window-width="1440"
     inkscape:window-height="851"
     id="namedview4259"
     showgrid="false"
     showguides="true"
     inkscape:guide-bbox="true"
     inkscape:zoom="0.23325825"
     inkscape:cx="829.23818"
     inkscape:cy="111.46267"
     inkscape:window-x="0"
     inkscape:window-y="1"
     inkscape:window-maximized="1"
     inkscape:current-layer="Layer_1"><sodipodi:guide
       position="947.44774,605.55201"
       orientation="0,1"
       id="guide4287" /></sodipodi:namedview><rect
     width="1920"
     height="1080"
     id="rect4137"
     x="-3.0314331"
     y="125.80447" /><rect
     x="79.249"
     y="66.649"
     fill="none"
     stroke="#FFFFFF"
     stroke-width="3.898"
     width="1761.502"
     height="946.702"
     id="rect4139" /><polyline
     fill="none"
     stroke="#FFFFFF"
     stroke-width="3.898"
     points="79.666,173.406 294.43,173.406 294.43,67.065 "
     id="polyline4141" /><text
     font-size="75.7124"
     id="text4177"
     x="936.52917"
     y="634.85449"
     style="font-size:75.71240234px;font-family:SuperGroteskOT-Med;fill:#ffffff">–</text>
<g
     id="g4249"><defs
       id="defs4251"><rect
         id="SVGID_1_"
         width="1920"
         height="1080" /></defs><clipPath
       id="SVGID_2_"><use
         xlink:href="#SVGID_1_"
         overflow="visible"
         id="use4255" /></clipPath><path
       clip-path="url(#SVGID_2_)"
       fill="#FFFFFF"
       d="M262.689,144.492v-8.14c-1.258,1.258-2.516,1.85-3.626,1.85   c-1.554,0-2.664-1.184-2.664-3.33v-11.84h6.29v-8.14h-6.29v-11.84l-9.25,1.48v10.36h-4.07l-1.11,8.14h5.18v14.8   c0,6.66,3.7,9.25,8.88,9.25C258.323,147.082,261.209,145.972,262.689,144.492 M237.529,145.972l-10.212-15.836l9.472-15.244h-9.62   l-4.81,7.474l-4.81-7.474h-9.62l9.472,15.244l-10.212,15.836h10.36l4.81-7.77l4.81,7.77H237.529z M193.87,127.472h-14.8   c0.74-2.96,2.96-5.92,7.4-5.92C190.91,121.552,193.129,124.512,193.87,127.472 M203.12,133.392v-3.7   c0-8.51-6.956-15.91-16.65-15.91c-10.36,0-17.02,7.03-17.02,16.65c0,9.62,6.66,16.65,17.02,16.65c7.4,0,11.84-1.85,15.614-7.104   l-6.956-3.626c-2.738,2.96-4.958,3.7-8.658,3.7c-3.7,0-6.66-2.96-7.4-6.66H203.12z M160.2,145.972v-53.28h-9.99v35.52h-0.148   l-23.902-35.52h-9.62v53.28h9.99v-35.52h0.148l23.902,35.52H160.2z"
       id="path4257" /></g><text
     xml:space="preserve"
     style="font-style:normal;font-weight:normal;font-size:107.87241364px;line-height:125%;font-family:sans-serif;letter-spacing:0px;word-spacing:0px;fill:#ffffff;fill-opacity:1;stroke:none;stroke-width:1px;stroke-linecap:butt;stroke-linejoin:miter;stroke-opacity:1"
     x="962.20526"
     y="308.95831"
     id="text4265"
     sodipodi:linespacing="125%"><tspan
       sodipodi:role="line"
       id="tspan4267"
       x="962.20526"
       y="308.95831"
       style="font-style:normal;font-variant:normal;font-weight:normal;font-stretch:normal;font-family:SuperGroteskOT-Med;-inkscape-font-specification:SuperGroteskOT-Med;text-align:center;text-anchor:middle">%title$1%</tspan><tspan
       sodipodi:role="line"
       x="962.20526"
       y="443.79883"
       style="font-style:normal;font-variant:normal;font-weight:normal;font-stretch:normal;font-family:SuperGroteskOT-Med;-inkscape-font-specification:SuperGroteskOT-Med;text-align:center;text-anchor:middle"
       id="tspan3349">%title$2%</tspan><tspan
       sodipodi:role="line"
       x="962.20526"
       y="578.63934"
       style="font-style:normal;font-variant:normal;font-weight:normal;font-stretch:normal;font-family:SuperGroteskOT-Med;-inkscape-font-specification:SuperGroteskOT-Med;text-align:center;text-anchor:middle"
       id="tspan3353">%title$3%</tspan></text>
<text
     xml:space="preserve"
     style="font-style:normal;font-weight:normal;font-size:93.75px;line-height:125%;font-family:sans-serif;letter-spacing:0px;word-spacing:0px;fill:#ffffff;fill-opacity:1;stroke:none;stroke-width:1px;stroke-linecap:butt;stroke-linejoin:miter;stroke-opacity:1"
     x="962.9408"
     y="720.90588"
     id="text4275"
     sodipodi:linespacing="125%"><tspan
       sodipodi:role="line"
       id="tspan4277"
       x="962.9408"
       y="720.90588"
       style="font-style:normal;font-variant:normal;font-weight:normal;font-stretch:normal;font-size:80px;font-family:SuperGroteskOT-Med;-inkscape-font-specification:SuperGroteskOT-Med;text-align:center;text-anchor:middle;fill:#ffffff;fill-opacity:1">%speaker$1%</tspan><tspan
       sodipodi:role="line"
       x="962.9408"
       y="820.90588"
       style="font-style:normal;font-variant:normal;font-weight:normal;font-stretch:normal;font-size:80px;font-family:SuperGroteskOT-Med;-inkscape-font-specification:SuperGroteskOT-Med;text-align:center;text-anchor:middle;fill:#ffffff;fill-opacity:1"
       id="tspan3350">%speaker$2%</tspan><tspan
       sodipodi:role="line"
       x="962.9408"
       y="920.90588"
       style="font-style:normal;font-variant:normal;font-weight:normal;font-stretch:normal;font-size:80px;font-family:SuperGroteskOT-Med;-inkscape-font-specification:SuperGroteskOT-Med;text-align:center;text-anchor:middle;fill:#ffffff;fill-opacity:1"
       id="tspan3352">%speaker$3%</tspan></text>
</svg>